<svg width="52" height="22" viewBox="0 0 52 22" fill="none" xmlns="http://www.w3.org/2000/svg">
<path d="M0.420455 11.2273V9.86364L11.3977 4.27273V6.45454L2.97727 10.5114L3.04545 10.375V10.7159L2.97727 10.5795L11.3977 14.6364V16.8182L0.420455 11.2273ZM15.9339 19V1.54545H22.0362C23.2521 1.54545 24.255 1.75568 25.0447 2.17614C25.8345 2.59091 26.4226 3.15057 26.8089 3.85511C27.1953 4.55398 27.3885 5.32954 27.3885 6.18182C27.3885 6.93182 27.255 7.55114 26.9879 8.03977C26.7266 8.52841 26.38 8.91477 25.9482 9.19886C25.522 9.48295 25.0589 9.69318 24.5589 9.82955V10C25.093 10.0341 25.63 10.2216 26.1697 10.5625C26.7095 10.9034 27.1612 11.392 27.5249 12.0284C27.8885 12.6648 28.0703 13.4432 28.0703 14.3636C28.0703 15.2386 27.8714 16.0256 27.4737 16.7244C27.076 17.4233 26.4482 17.9773 25.5902 18.3864C24.7322 18.7955 23.6158 19 22.2408 19H15.9339ZM18.0476 17.125H22.2408C23.6214 17.125 24.6016 16.858 25.1811 16.3239C25.7663 15.7841 26.0589 15.1307 26.0589 14.3636C26.0589 13.7727 25.9084 13.2273 25.6072 12.7273C25.3061 12.2216 24.8771 11.8182 24.3203 11.517C23.7635 11.2102 23.1044 11.0568 22.343 11.0568H18.0476V17.125ZM18.0476 9.21591H21.968C22.6044 9.21591 23.1783 9.09091 23.6896 8.84091C24.2067 8.59091 24.6158 8.23864 24.9169 7.78409C25.2237 7.32955 25.3771 6.79545 25.3771 6.18182C25.3771 5.41477 25.1101 4.7642 24.576 4.23011C24.0419 3.69034 23.1953 3.42045 22.0362 3.42045H18.0476V9.21591ZM37.4411 0.727272L31.8161 21.625H29.9751L35.6001 0.727272H37.4411ZM51.3821 12.8636L40.4048 18.4545V16.2727L48.8253 12.2159L48.7571 12.3523V12.0114L48.8253 12.1477L40.4048 8.09091V5.90909L51.3821 11.5V12.8636Z" fill="#12F7D6"/>
</svg>
